<?xml version="1.0"?>

<svg xmlns="http://www.w3.org/2000/svg" style="display:none">
  <symbol id="pfile-folder" viewBox="0 0 48 48"><path d="M5 12a2 2 0 0 1 2-2h11l3.5 4H41a2 2 0 0 1 2 2v20a2 2 0 0 1-2 2H7a2 2 0 0 1-2-2z" fill="#c9a24a"></path><path d="M5 18h38v18a2 2 0 0 1-2 2H7a2 2 0 0 1-2-2z" fill="#e0bd6a"></path></symbol>
  <symbol id="pfile-document" viewBox="0 0 48 48"><path d="M12 4h18l10 10v28a2 2 0 0 1-2 2H12a2 2 0 0 1-2-2V6a2 2 0 0 1 2-2z" fill="#f4efe2"></path><path d="M30 4l10 10H32a2 2 0 0 1-2-2z" fill="#c3bda9"></path><path d="M16 22h16M16 28h16M16 34h10" stroke="#5b6b8c" stroke-width="2.2" stroke-linecap="round"></path></symbol>
  <symbol id="pfile-text" viewBox="0 0 48 48"><path d="M12 4h18l10 10v28a2 2 0 0 1-2 2H12a2 2 0 0 1-2-2V6a2 2 0 0 1 2-2z" fill="#f4efe2"></path><path d="M30 4l10 10H32a2 2 0 0 1-2-2z" fill="#c3bda9"></path><rect x="9" y="28" width="30" height="10" rx="1.6" fill="#64748b"></rect><text x="24" y="35.6" text-anchor="middle" fill="#fff" font-family="Oswald,sans-serif" font-size="7" font-weight="700" letter-spacing="0.4">TXT</text></symbol>
  <symbol id="pfile-word" viewBox="0 0 48 48"><path d="M12 4h18l10 10v28a2 2 0 0 1-2 2H12a2 2 0 0 1-2-2V6a2 2 0 0 1 2-2z" fill="#f4efe2"></path><path d="M30 4l10 10H32a2 2 0 0 1-2-2z" fill="#c3bda9"></path><rect x="9" y="28" width="30" height="10" rx="1.6" fill="#2f5fd0"></rect><text x="24" y="35.6" text-anchor="middle" fill="#fff" font-family="Oswald,sans-serif" font-size="7" font-weight="700" letter-spacing="0.4">DOC</text></symbol>
  <symbol id="pfile-pdf" viewBox="0 0 48 48"><path d="M12 4h18l10 10v28a2 2 0 0 1-2 2H12a2 2 0 0 1-2-2V6a2 2 0 0 1 2-2z" fill="#f4efe2"></path><path d="M30 4l10 10H32a2 2 0 0 1-2-2z" fill="#c3bda9"></path><rect x="9" y="28" width="30" height="10" rx="1.6" fill="#c0392b"></rect><text x="24" y="35.6" text-anchor="middle" fill="#fff" font-family="Oswald,sans-serif" font-size="7" font-weight="700" letter-spacing="0.4">PDF</text></symbol>
  <symbol id="pfile-sheet" viewBox="0 0 48 48"><path d="M12 4h18l10 10v28a2 2 0 0 1-2 2H12a2 2 0 0 1-2-2V6a2 2 0 0 1 2-2z" fill="#f4efe2"></path><path d="M30 4l10 10H32a2 2 0 0 1-2-2z" fill="#c3bda9"></path><rect x="15" y="22" width="18" height="15" rx="1" fill="none" stroke="#2f8f5b" stroke-width="1.6"></rect><path d="M15 27h18M15 32h18M21 22v15M27 22v15" stroke="#2f8f5b" stroke-width="1.4"></path></symbol>
  <symbol id="pfile-csv" viewBox="0 0 48 48"><path d="M12 4h18l10 10v28a2 2 0 0 1-2 2H12a2 2 0 0 1-2-2V6a2 2 0 0 1 2-2z" fill="#f4efe2"></path><path d="M30 4l10 10H32a2 2 0 0 1-2-2z" fill="#c3bda9"></path><rect x="9" y="28" width="30" height="10" rx="1.6" fill="#2f8f5b"></rect><text x="24" y="35.6" text-anchor="middle" fill="#fff" font-family="Oswald,sans-serif" font-size="7" font-weight="700" letter-spacing="0.4">CSV</text></symbol>
  <symbol id="pfile-presentation" viewBox="0 0 48 48"><path d="M12 4h18l10 10v28a2 2 0 0 1-2 2H12a2 2 0 0 1-2-2V6a2 2 0 0 1 2-2z" fill="#f4efe2"></path><path d="M30 4l10 10H32a2 2 0 0 1-2-2z" fill="#c3bda9"></path><rect x="9" y="28" width="30" height="10" rx="1.6" fill="#d1662b"></rect><text x="24" y="35.6" text-anchor="middle" fill="#fff" font-family="Oswald,sans-serif" font-size="7" font-weight="700" letter-spacing="0.4">PPT</text></symbol>
  <symbol id="pfile-image" viewBox="0 0 48 48"><path d="M12 4h18l10 10v28a2 2 0 0 1-2 2H12a2 2 0 0 1-2-2V6a2 2 0 0 1 2-2z" fill="#f4efe2"></path><path d="M30 4l10 10H32a2 2 0 0 1-2-2z" fill="#c3bda9"></path><rect x="15" y="22" width="18" height="14" rx="1.5" fill="none" stroke="#3aa06a" stroke-width="2"></rect><circle cx="20" cy="27" r="1.8" fill="#3aa06a"></circle><path d="M16 34l5-5 4 3 4-4 4 6" fill="none" stroke="#3aa06a" stroke-width="2" stroke-linejoin="round"></path></symbol>
  <symbol id="pfile-audio" viewBox="0 0 48 48"><path d="M12 4h18l10 10v28a2 2 0 0 1-2 2H12a2 2 0 0 1-2-2V6a2 2 0 0 1 2-2z" fill="#f4efe2"></path><path d="M30 4l10 10H32a2 2 0 0 1-2-2z" fill="#c3bda9"></path><path d="M28 21l-8 2v9.5" fill="none" stroke="#7b5cd6" stroke-width="2" stroke-linecap="round" stroke-linejoin="round"></path><path d="M28 21v8.5" stroke="#7b5cd6" stroke-width="2" stroke-linecap="round"></path><circle cx="17.5" cy="33" r="3" fill="#7b5cd6"></circle><circle cx="25.5" cy="30" r="3" fill="#7b5cd6"></circle></symbol>
  <symbol id="pfile-video" viewBox="0 0 48 48"><path d="M12 4h18l10 10v28a2 2 0 0 1-2 2H12a2 2 0 0 1-2-2V6a2 2 0 0 1 2-2z" fill="#f4efe2"></path><path d="M30 4l10 10H32a2 2 0 0 1-2-2z" fill="#c3bda9"></path><rect x="15" y="23" width="18" height="12" rx="1.5" fill="#d1495b"></rect><path d="M22 26.5l5 2.5-5 2.5z" fill="#f4efe2"></path></symbol>
  <symbol id="pfile-archive" viewBox="0 0 48 48"><path d="M12 4h18l10 10v28a2 2 0 0 1-2 2H12a2 2 0 0 1-2-2V6a2 2 0 0 1 2-2z" fill="#f4efe2"></path><path d="M30 4l10 10H32a2 2 0 0 1-2-2z" fill="#c3bda9"></path><path d="M22 4v4M25 8v4M22 12v4M25 16v4M22 20v4" stroke="#d99a2b" stroke-width="3"></path><rect x="20" y="24" width="8" height="8" rx="1" fill="#d99a2b"></rect><rect x="23" y="27" width="2" height="3" fill="#f4efe2"></rect></symbol>
  <symbol id="pfile-data" viewBox="0 0 48 48"><path d="M12 4h18l10 10v28a2 2 0 0 1-2 2H12a2 2 0 0 1-2-2V6a2 2 0 0 1 2-2z" fill="#f4efe2"></path><path d="M30 4l10 10H32a2 2 0 0 1-2-2z" fill="#c3bda9"></path><path d="M20 24l-5 5 5 5M28 24l5 5-5 5M25 22l-2 14" fill="none" stroke="#2f7fd1" stroke-width="2" stroke-linecap="round" stroke-linejoin="round"></path></symbol>
  <symbol id="pfile-database" viewBox="0 0 48 48"><path d="M12 4h18l10 10v28a2 2 0 0 1-2 2H12a2 2 0 0 1-2-2V6a2 2 0 0 1 2-2z" fill="#f4efe2"></path><path d="M30 4l10 10H32a2 2 0 0 1-2-2z" fill="#c3bda9"></path><ellipse cx="24" cy="24" rx="8" ry="3" fill="none" stroke="#8a5cd6" stroke-width="1.8"></ellipse><path d="M16 24v9c0 1.6 3.6 3 8 3s8-1.4 8-3v-9" fill="none" stroke="#8a5cd6" stroke-width="1.8"></path><path d="M16 28.5c0 1.6 3.6 3 8 3s8-1.4 8-3" fill="none" stroke="#8a5cd6" stroke-width="1.5"></path></symbol>
  <symbol id="pfile-email" viewBox="0 0 48 48"><path d="M12 4h18l10 10v28a2 2 0 0 1-2 2H12a2 2 0 0 1-2-2V6a2 2 0 0 1 2-2z" fill="#f4efe2"></path><path d="M30 4l10 10H32a2 2 0 0 1-2-2z" fill="#c3bda9"></path><rect x="14" y="24" width="20" height="13" rx="1.5" fill="none" stroke="#d1902b" stroke-width="2"></rect><path d="M14.5 25l9.5 7 9.5-7" fill="none" stroke="#d1902b" stroke-width="2" stroke-linejoin="round"></path></symbol>
  <symbol id="pfile-contact" viewBox="0 0 48 48"><path d="M12 4h18l10 10v28a2 2 0 0 1-2 2H12a2 2 0 0 1-2-2V6a2 2 0 0 1 2-2z" fill="#f4efe2"></path><path d="M30 4l10 10H32a2 2 0 0 1-2-2z" fill="#c3bda9"></path><circle cx="21" cy="27" r="3" fill="#2f7fd1"></circle><path d="M16 36c0-3 2.2-5 5-5s5 2 5 5z" fill="#2f7fd1"></path><path d="M30 26h4M30 30h4M30 34h3" stroke="#2f7fd1" stroke-width="1.6" stroke-linecap="round"></path></symbol>
  <symbol id="pfile-map" viewBox="0 0 48 48"><path d="M12 4h18l10 10v28a2 2 0 0 1-2 2H12a2 2 0 0 1-2-2V6a2 2 0 0 1 2-2z" fill="#f4efe2"></path><path d="M30 4l10 10H32a2 2 0 0 1-2-2z" fill="#c3bda9"></path><path d="M18 22l6 2 6-2v13l-6 2-6-2z" fill="none" stroke="#2f8f5b" stroke-width="1.6" stroke-linejoin="round"></path><path d="M24 24v13M18 22v13M30 20v13" stroke="#2f8f5b" stroke-width="1.4"></path></symbol>
  <symbol id="pfile-calendar" viewBox="0 0 48 48"><path d="M12 4h18l10 10v28a2 2 0 0 1-2 2H12a2 2 0 0 1-2-2V6a2 2 0 0 1 2-2z" fill="#f4efe2"></path><path d="M30 4l10 10H32a2 2 0 0 1-2-2z" fill="#c3bda9"></path><rect x="15" y="23" width="18" height="14" rx="1.5" fill="none" stroke="#d1495b" stroke-width="1.8"></rect><path d="M15 27.5h18M20 21v4M28 21v4" stroke="#d1495b" stroke-width="1.8" stroke-linecap="round"></path></symbol>
  <symbol id="pfile-certificate" viewBox="0 0 48 48"><path d="M12 4h18l10 10v28a2 2 0 0 1-2 2H12a2 2 0 0 1-2-2V6a2 2 0 0 1 2-2z" fill="#f4efe2"></path><path d="M30 4l10 10H32a2 2 0 0 1-2-2z" fill="#c3bda9"></path><circle cx="24" cy="27" r="5" fill="none" stroke="#d1a72b" stroke-width="2"></circle><path d="M21 31l-1.5 6 4.5-2.5 4.5 2.5-1.5-6" fill="#d1a72b"></path></symbol>
  <symbol id="pfile-log" viewBox="0 0 48 48"><path d="M12 4h18l10 10v28a2 2 0 0 1-2 2H12a2 2 0 0 1-2-2V6a2 2 0 0 1 2-2z" fill="#f4efe2"></path><path d="M30 4l10 10H32a2 2 0 0 1-2-2z" fill="#c3bda9"></path><rect x="9" y="28" width="30" height="10" rx="1.6" fill="#7a8699"></rect><text x="24" y="35.6" text-anchor="middle" fill="#fff" font-family="Oswald,sans-serif" font-size="7" font-weight="700" letter-spacing="0.4">LOG</text></symbol>
  <symbol id="pfile-executable" viewBox="0 0 48 48"><path d="M12 4h18l10 10v28a2 2 0 0 1-2 2H12a2 2 0 0 1-2-2V6a2 2 0 0 1 2-2z" fill="#f4efe2"></path><path d="M30 4l10 10H32a2 2 0 0 1-2-2z" fill="#c3bda9"></path><circle cx="24" cy="30" r="3" fill="none" stroke="#5b6b8c" stroke-width="2"></circle><path d="M24 23v-2M24 39v-2M31 30h2M15 30h2M29 25l1.4-1.4M17.6 36.4l1.4-1.4M29 35l1.4 1.4M17.6 23.6l1.4 1.4" stroke="#5b6b8c" stroke-width="2" stroke-linecap="round"></path></symbol>
  <symbol id="pfile-unknown" viewBox="0 0 48 48"><path d="M12 4h18l10 10v28a2 2 0 0 1-2 2H12a2 2 0 0 1-2-2V6a2 2 0 0 1 2-2z" fill="#f4efe2"></path><path d="M30 4l10 10H32a2 2 0 0 1-2-2z" fill="#c3bda9"></path><path d="M21 26.5a3 3 0 0 1 5.5 1.6c0 2-2.5 2.3-2.5 4.2" fill="none" stroke="#8a93a6" stroke-width="2" stroke-linecap="round"></path><circle cx="24" cy="36" r="1.4" fill="#8a93a6"></circle></symbol>
  <symbol id="pfile-people" viewBox="0 0 48 48"><path d="M12 4h18l10 10v28a2 2 0 0 1-2 2H12a2 2 0 0 1-2-2V6a2 2 0 0 1 2-2z" fill="#f4efe2"></path><path d="M30 4l10 10H32a2 2 0 0 1-2-2z" fill="#c3bda9"></path><circle cx="20" cy="26" r="3.2" fill="#c9a24a"></circle><path d="M14.5 36c0-3.2 2.4-5.5 5.5-5.5s5.5 2.3 5.5 5.5z" fill="#c9a24a"></path><path d="M29 27h5M29 31h5M29 35h3" stroke="#c9a24a" stroke-width="1.6" stroke-linecap="round"></path></symbol>
  <symbol id="pfile-case" viewBox="0 0 48 48"><path d="M12 4h18l10 10v28a2 2 0 0 1-2 2H12a2 2 0 0 1-2-2V6a2 2 0 0 1 2-2z" fill="#f4efe2"></path><path d="M30 4l10 10H32a2 2 0 0 1-2-2z" fill="#c3bda9"></path><path d="M24 21l1.6 3.3 3.6.5-2.6 2.5.6 3.6-3.2-1.7-3.2 1.7.6-3.6-2.6-2.5 3.6-.5z" fill="#c9a24a"></path><path d="M17 36h14" stroke="#c9a24a" stroke-width="1.8" stroke-linecap="round"></path></symbol>
  <symbol id="pfile-evidence" viewBox="0 0 48 48"><path d="M12 4h18l10 10v28a2 2 0 0 1-2 2H12a2 2 0 0 1-2-2V6a2 2 0 0 1 2-2z" fill="#f4efe2"></path><path d="M30 4l10 10H32a2 2 0 0 1-2-2z" fill="#c3bda9"></path><path d="M16 25l8-3 8 3-8 3z" fill="#4a8f6c"></path><path d="M16 25v9l8 3v-9z" fill="#2f6b4f"></path><path d="M32 25v9l-8 3v-9z" fill="#3a7a5c"></path></symbol>
  <symbol id="pfile-warrant" viewBox="0 0 48 48"><path d="M12 4h18l10 10v28a2 2 0 0 1-2 2H12a2 2 0 0 1-2-2V6a2 2 0 0 1 2-2z" fill="#f4efe2"></path><path d="M30 4l10 10H32a2 2 0 0 1-2-2z" fill="#c3bda9"></path><circle cx="24" cy="29" r="5.5" fill="none" stroke="#b23b3b" stroke-width="2"></circle><circle cx="24" cy="29" r="2.4" fill="#b23b3b"></circle><path d="M24 21v3M24 34v3M16 29h3M29 29h3" stroke="#b23b3b" stroke-width="1.8" stroke-linecap="round"></path></symbol>
  <symbol id="pfile-report" viewBox="0 0 48 48"><path d="M12 4h18l10 10v28a2 2 0 0 1-2 2H12a2 2 0 0 1-2-2V6a2 2 0 0 1 2-2z" fill="#f4efe2"></path><path d="M30 4l10 10H32a2 2 0 0 1-2-2z" fill="#c3bda9"></path><path d="M17 35v-5M22 35v-9M27 35v-6M32 35v-11" stroke="#2f7fd1" stroke-width="2.4" stroke-linecap="round"></path></symbol>
  <symbol id="pfile-bolo" viewBox="0 0 48 48"><path d="M12 4h18l10 10v28a2 2 0 0 1-2 2H12a2 2 0 0 1-2-2V6a2 2 0 0 1 2-2z" fill="#f4efe2"></path><path d="M30 4l10 10H32a2 2 0 0 1-2-2z" fill="#c3bda9"></path><path d="M15 30s4-6 9-6 9 6 9 6-4 6-9 6-9-6-9-6z" fill="none" stroke="#c9a24a" stroke-width="1.8"></path><circle cx="24" cy="30" r="2.4" fill="#c9a24a"></circle></symbol>
  <symbol id="pfile-suspect" viewBox="0 0 48 48"><path d="M12 4h18l10 10v28a2 2 0 0 1-2 2H12a2 2 0 0 1-2-2V6a2 2 0 0 1 2-2z" fill="#f4efe2"></path><path d="M30 4l10 10H32a2 2 0 0 1-2-2z" fill="#c3bda9"></path><circle cx="24" cy="27" r="3.2" fill="#3a4a63"></circle><path d="M18 37c0-3.4 2.7-5.6 6-5.6s6 2.2 6 5.6z" fill="#3a4a63"></path><path d="M15 22v16M33 22v16" stroke="#8a93a6" stroke-width="1.2"></path></symbol>
  <symbol id="pfile-statement" viewBox="0 0 48 48"><path d="M12 4h18l10 10v28a2 2 0 0 1-2 2H12a2 2 0 0 1-2-2V6a2 2 0 0 1 2-2z" fill="#f4efe2"></path><path d="M30 4l10 10H32a2 2 0 0 1-2-2z" fill="#c3bda9"></path><path d="M18 24c-2 1-3 3-3 6h4v-6zM26 24c-2 1-3 3-3 6h4v-6z" fill="#5b6b8c"></path><path d="M17 34h14" stroke="#5b6b8c" stroke-width="1.8" stroke-linecap="round"></path></symbol>
  <symbol id="pfile-incident" viewBox="0 0 48 48"><path d="M12 4h18l10 10v28a2 2 0 0 1-2 2H12a2 2 0 0 1-2-2V6a2 2 0 0 1 2-2z" fill="#f4efe2"></path><path d="M30 4l10 10H32a2 2 0 0 1-2-2z" fill="#c3bda9"></path><path d="M19 21v16" stroke="#b23b3b" stroke-width="2" stroke-linecap="round"></path><path d="M19 22h11l-2.5 3.5L30 29H19z" fill="#b23b3b"></path></symbol>
  <symbol id="pfile-printcard" viewBox="0 0 48 48"><path d="M12 4h18l10 10v28a2 2 0 0 1-2 2H12a2 2 0 0 1-2-2V6a2 2 0 0 1 2-2z" fill="#f4efe2"></path><path d="M30 4l10 10H32a2 2 0 0 1-2-2z" fill="#c3bda9"></path><g fill="none" stroke="#3a4a63" stroke-width="1.5" stroke-linecap="round"><path d="M18 29a6 6 0 0 1 12 0v2"></path><path d="M21 29a3 3 0 0 1 6 0c0 3.5-.4 6-1.2 8"></path><path d="M24 29v3c0 2.5-.4 4.5-1.1 6.3"></path><path d="M18 31c0 3-.5 5.3-1.4 7.4M30 31.5c0 1.7-.1 3.2-.5 4.7"></path></g></symbol>
  <symbol id="pfile-sealed" viewBox="0 0 48 48"><path d="M12 4h18l10 10v28a2 2 0 0 1-2 2H12a2 2 0 0 1-2-2V6a2 2 0 0 1 2-2z" fill="#f4efe2"></path><path d="M30 4l10 10H32a2 2 0 0 1-2-2z" fill="#c3bda9"></path><path d="M19 27v-2a5 5 0 0 1 10 0v2" fill="none" stroke="#b23b3b" stroke-width="2"></path><rect x="16.5" y="27" width="15" height="11" rx="1.5" fill="#b23b3b"></rect><circle cx="24" cy="31.5" r="1.6" fill="#f4efe2"></circle><path d="M24 33v2.5" stroke="#f4efe2" stroke-width="1.6" stroke-linecap="round"></path></symbol>
</svg>