<?xml version="1.0"?>

<svg xmlns="http://www.w3.org/2000/svg" style="display:none">
  <symbol id="pims-dashboard" viewBox="0 0 24 24" fill="none" stroke="currentColor" stroke-width="1.7" stroke-linecap="round" stroke-linejoin="round"><rect x="3" y="3" width="7" height="9" rx="1.2"></rect><rect x="14" y="3" width="7" height="5" rx="1.2"></rect><rect x="14" y="11" width="7" height="10" rx="1.2"></rect><rect x="3" y="15" width="7" height="6" rx="1.2"></rect></symbol>
  <symbol id="pims-officers" viewBox="0 0 24 24" fill="none" stroke="currentColor" stroke-width="1.7" stroke-linecap="round" stroke-linejoin="round"><circle cx="12" cy="8" r="3.4"></circle><path d="M5.5 20c0-3.6 2.9-6 6.5-6s6.5 2.4 6.5 6"></path><path d="M12 8l1.1 1.1L15 6.4" stroke-width="1.3"></path></symbol>
  <symbol id="pims-cases" viewBox="0 0 24 24" fill="none" stroke="currentColor" stroke-width="1.7" stroke-linecap="round" stroke-linejoin="round"><path d="M3 7.5C3 6.7 3.7 6 4.5 6h4l2 2.3H19c.8 0 1.5.7 1.5 1.5v7.7c0 .8-.7 1.5-1.5 1.5H4.5c-.8 0-1.5-.7-1.5-1.5z"></path><path d="M3 10.8h17.5" stroke-width="1.2"></path></symbol>
  <symbol id="pims-reports" viewBox="0 0 24 24" fill="none" stroke="currentColor" stroke-width="1.7" stroke-linecap="round" stroke-linejoin="round"><path d="M6 3h8l4 4v13.5c0 .3-.2.5-.5.5h-11c-.3 0-.5-.2-.5-.5z"></path><path d="M14 3v4h4" stroke-width="1.3"></path><path d="M8.5 12h7M8.5 15h7M8.5 18h4" stroke-width="1.3"></path></symbol>
  <symbol id="pims-search" viewBox="0 0 24 24" fill="none" stroke="currentColor" stroke-width="1.7" stroke-linecap="round" stroke-linejoin="round"><circle cx="11" cy="11" r="6.2"></circle><path d="M15.6 15.6L20 20"></path></symbol>
  <symbol id="pims-cloud" viewBox="0 0 24 24" fill="none" stroke="currentColor" stroke-width="1.7" stroke-linecap="round" stroke-linejoin="round"><path d="M7 18.5A4 4 0 0 1 6.7 10.6a5 5 0 0 1 9.7-1.2A3.6 3.6 0 0 1 17.5 18.5z"></path><path d="M12 15.5v-4M12 11.5l-2 2M12 11.5l2 2" stroke-width="1.3"></path></symbol>
  <symbol id="pims-analytics" viewBox="0 0 24 24" fill="none" stroke="currentColor" stroke-width="1.7" stroke-linecap="round" stroke-linejoin="round"><path d="M4 4v16h16"></path><rect x="7.5" y="12" width="2.6" height="5" fill="currentColor" stroke="none"></rect><rect x="12" y="8.5" width="2.6" height="8.5" fill="currentColor" stroke="none"></rect><rect x="16.5" y="10.5" width="2.6" height="6.5" fill="currentColor" stroke="none"></rect></symbol>
  <symbol id="pims-shifts" viewBox="0 0 24 24" fill="none" stroke="currentColor" stroke-width="1.7" stroke-linecap="round" stroke-linejoin="round"><rect x="4" y="5" width="16" height="15" rx="1.5"></rect><path d="M4 9.5h16M8 3v3.5M16 3v3.5" stroke-width="1.4"></path><rect x="7.5" y="12.5" width="3" height="3" rx="0.6" fill="currentColor" stroke="none"></rect></symbol>
  <symbol id="pims-scanner" viewBox="0 0 24 24" fill="none" stroke="currentColor" stroke-width="1.7" stroke-linecap="round" stroke-linejoin="round"><path d="M4 8V6a2 2 0 0 1 2-2h2M20 8V6a2 2 0 0 0-2-2h-2M4 16v2a2 2 0 0 0 2 2h2M20 16v2a2 2 0 0 1-2 2h-2"></path><path d="M4 12h16" stroke-width="2"></path></symbol>
  <symbol id="pims-fingerprint" viewBox="0 0 24 24" fill="none" stroke="currentColor" stroke-width="1.7" stroke-linecap="round" stroke-linejoin="round"><path d="M7 11a5 5 0 0 1 10 0v1.5"></path><path d="M9.3 11a2.7 2.7 0 0 1 5.4 0c0 3-.3 5-1 6.6"></path><path d="M12 11v3c0 2-.3 3.6-.9 5"></path><path d="M7 13c0 2.4-.4 4.3-1.2 6M17 13.5c0 1.4-.1 2.6-.4 3.8"></path></symbol>
  <symbol id="pims-evidence" viewBox="0 0 24 24" fill="none" stroke="currentColor" stroke-width="1.7" stroke-linecap="round" stroke-linejoin="round"><path d="M4 8.5L12 4l8 4.5v7L12 20l-8-4.5z"></path><path d="M4 8.5L12 13l8-4.5M12 13v7" stroke-width="1.3"></path></symbol>
  <symbol id="pims-patrol" viewBox="0 0 24 24" fill="none" stroke="currentColor" stroke-width="1.7" stroke-linecap="round" stroke-linejoin="round"><path d="M3 15v-2.3l2-4.2C5.4 7.6 6 7 7 7h10c1 0 1.6.6 2 1.5l2 4.2V15"></path><path d="M3 15h18v2.2c0 .4-.3.8-.8.8h-1.4a.8.8 0 0 1-.8-.8V16.5H6v.7c0 .4-.3.8-.8.8H3.8a.8.8 0 0 1-.8-.8z"></path><path d="M5.2 12.5h13.6" stroke-width="1.2"></path><circle cx="6.5" cy="15" r="0.4" fill="currentColor"></circle><circle cx="17.5" cy="15" r="0.4" fill="currentColor"></circle></symbol>
  <symbol id="pims-location" viewBox="0 0 24 24" fill="none" stroke="currentColor" stroke-width="1.7" stroke-linecap="round" stroke-linejoin="round"><path d="M12 21c4.5-4.4 6.7-8 6.7-11A6.7 6.7 0 0 0 5.3 10c0 3 2.2 6.6 6.7 11z"></path><circle cx="12" cy="10" r="2.4"></circle></symbol>
  <symbol id="pims-surveillance" viewBox="0 0 24 24" fill="none" stroke="currentColor" stroke-width="1.7" stroke-linecap="round" stroke-linejoin="round"><path d="M3 8.5l14-3 .8 3.4L4 12z"></path><path d="M5 12l1 4M15 9l1.2 5"></path><path d="M18.5 8.2l2.3-.8.8 2.5-2.3.8z"></path><circle cx="9.5" cy="18.5" r="2"></circle></symbol>
  <symbol id="pims-dispatch" viewBox="0 0 24 24" fill="none" stroke="currentColor" stroke-width="1.7" stroke-linecap="round" stroke-linejoin="round"><rect x="6" y="9" width="9" height="12" rx="1.4"></rect><path d="M15 12l4-2M11 5.5l3.5-1.2" stroke-width="1.4"></path><circle cx="10" cy="13" r="1.6"></circle><path d="M9 17.5h2" stroke-width="1.4"></path></symbol>
  <symbol id="pims-warrants" viewBox="0 0 24 24" fill="none" stroke="currentColor" stroke-width="1.7" stroke-linecap="round" stroke-linejoin="round"><path d="M12.5 6.2l3.3-3.3 3.3 3.3-3.3 3.3z"></path><path d="M8.7 10l3.3-3.3 3.3 3.3-3.3 3.3z"></path><path d="M14 9.5l-4.5 4.5M6 21h9M8 16.5l3-3" stroke-width="1.5"></path></symbol>
  <symbol id="pims-add" viewBox="0 0 24 24" fill="none" stroke="currentColor" stroke-width="1.7" stroke-linecap="round" stroke-linejoin="round"><circle cx="12" cy="12" r="9" fill="currentColor" stroke="none"></circle><path d="M12 8v8M8 12h8" stroke="#12200a" stroke-width="2.2"></path></symbol>
  <symbol id="pims-alerts" viewBox="0 0 24 24" fill="none" stroke="currentColor" stroke-width="1.7" stroke-linecap="round" stroke-linejoin="round"><path d="M6 17v-5a6 6 0 0 1 12 0v5"></path><path d="M4 17h16M12 3.2V5M10 20.5h4" stroke-width="1.5"></path><path d="M6 12H4M20 12h-2M6.2 7.5L4.8 6.1M17.8 7.5l1.4-1.4" stroke-width="1.3"></path></symbol>
  <symbol id="pims-access" viewBox="0 0 24 24" fill="none" stroke="currentColor" stroke-width="1.7" stroke-linecap="round" stroke-linejoin="round"><path d="M12 3l7 2.5V11c0 4.6-3 8.2-7 9.6C8 19.2 5 15.6 5 11V5.5z"></path><path d="M12 11v3" stroke-width="1.5"></path><circle cx="12" cy="10" r="1.4" fill="currentColor" stroke="none"></circle></symbol>
  <symbol id="pims-archive" viewBox="0 0 24 24" fill="none" stroke="currentColor" stroke-width="1.7" stroke-linecap="round" stroke-linejoin="round"><rect x="4" y="4.5" width="16" height="4" rx="1"></rect><path d="M5 8.5v10c0 .6.4 1 1 1h12c.6 0 1-.4 1-1v-10"></path><path d="M9.5 12.5h5" stroke-width="1.5"></path></symbol>
  <symbol id="pims-notifications" viewBox="0 0 24 24" fill="none" stroke="currentColor" stroke-width="1.7" stroke-linecap="round" stroke-linejoin="round"><path d="M6 16V11a6 6 0 0 1 12 0v5l1.5 2.2H4.5z"></path><path d="M10 19a2 2 0 0 0 4 0" stroke-width="1.5"></path></symbol>
  <symbol id="pims-settings" viewBox="0 0 24 24" fill="none" stroke="currentColor" stroke-width="1.7" stroke-linecap="round" stroke-linejoin="round"><path d="M12 3.5l1.4 2 2.4-.5.6 2.4 2.2 1.1-.9 2.3.9 2.3-2.2 1.1-.6 2.4-2.4-.5-1.4 2-1.4-2-2.4.5-.6-2.4-2.2-1.1.9-2.3-.9-2.3 2.2-1.1.6-2.4 2.4.5z"></path><circle cx="12" cy="12" r="2.6"></circle></symbol>
  <symbol id="pims-export" viewBox="0 0 24 24" fill="none" stroke="currentColor" stroke-width="1.7" stroke-linecap="round" stroke-linejoin="round"><path d="M12 15V4M12 4l-3.2 3.2M12 4l3.2 3.2"></path><path d="M5 13v5.5c0 .8.7 1.5 1.5 1.5h11c.8 0 1.5-.7 1.5-1.5V13" stroke-width="1.5"></path></symbol>
  <symbol id="pims-signout" viewBox="0 0 24 24" fill="none" stroke="currentColor" stroke-width="1.7" stroke-linecap="round" stroke-linejoin="round"><path d="M14 4H6.5C5.7 4 5 4.7 5 5.5v13c0 .8.7 1.5 1.5 1.5H14"></path><path d="M10 12h10M20 12l-3-3M20 12l-3 3" stroke-width="1.5"></path></symbol>
  <symbol id="pims-bookings" viewBox="0 0 24 24" fill="none" stroke="currentColor" stroke-width="1.7" stroke-linecap="round" stroke-linejoin="round"><circle cx="12" cy="8" r="3.2"></circle><path d="M6 20c0-3.3 2.7-5.8 6-5.8s6 2.5 6 5.8"></path><path d="M8 12.5l-2 1.5M16 12.5l2 1.5" stroke-width="1.2"></path><path d="M8.5 8h7" stroke-width="1.3"></path></symbol>
  <symbol id="pims-bolo" viewBox="0 0 24 24" fill="none" stroke="currentColor" stroke-width="1.7" stroke-linecap="round" stroke-linejoin="round"><path d="M2.5 12S6 5.5 12 5.5 21.5 12 21.5 12 18 18.5 12 18.5 2.5 12 2.5 12z"></path><circle cx="12" cy="12" r="2.6"></circle></symbol>
  <symbol id="pims-ballistics" viewBox="0 0 24 24" fill="none" stroke="currentColor" stroke-width="1.7" stroke-linecap="round" stroke-linejoin="round"><path d="M6 15c0-4 2.2-8 6-8 2.4 0 3.6 1.4 4.4 3l2.2-.8-.8 2.2.8 2.2-2.2-.8C15.6 16 14.4 17 12 17c-3.8 0-6-1-6-2z"></path><circle cx="9" cy="12" r="1" fill="currentColor" stroke="none"></circle><path d="M6 15l-2 2" stroke-width="1.3"></path></symbol>
  <symbol id="pims-k9" viewBox="0 0 24 24" fill="none" stroke="currentColor" stroke-width="1.7" stroke-linecap="round" stroke-linejoin="round"><path d="M5 8l2-3 2 2h4l1.5-1L18 5l1 4v3c0 2-1 3-2 4v3H8v-2c-2-1-3-2.5-3-5z"></path><path d="M8 5V3M9 12h.01M14 12h.01" stroke-width="1.6"></path></symbol>
  <symbol id="pims-custody" viewBox="0 0 24 24" fill="none" stroke="currentColor" stroke-width="1.7" stroke-linecap="round" stroke-linejoin="round"><rect x="4" y="4" width="16" height="16" rx="1.4"></rect><path d="M8 4v16M12 4v16M16 4v16" stroke-width="1.5"></path></symbol>
  <symbol id="pims-forensics" viewBox="0 0 24 24" fill="none" stroke="currentColor" stroke-width="1.7" stroke-linecap="round" stroke-linejoin="round"><path d="M10 3v6.5L5.5 17c-.7 1.2.1 2.7 1.5 2.7h10c1.4 0 2.2-1.5 1.5-2.7L14 9.5V3"></path><path d="M9 3h6M8.2 14h7.6" stroke-width="1.4"></path><circle cx="11" cy="16" r="0.7" fill="currentColor" stroke="none"></circle></symbol>
  <symbol id="pims-suspects" viewBox="0 0 24 24" fill="none" stroke="currentColor" stroke-width="1.7" stroke-linecap="round" stroke-linejoin="round"><path d="M8 4h8a1 1 0 0 1 1 1v14a1 1 0 0 1-1 1H8a1 1 0 0 1-1-1V5a1 1 0 0 1 1-1z"></path><circle cx="12" cy="9.5" r="2"></circle><path d="M9 15.5c0-1.6 1.3-2.6 3-2.6s3 1 3 2.6" stroke-width="1.3"></path></symbol>
  <symbol id="pims-incidents" viewBox="0 0 24 24" fill="none" stroke="currentColor" stroke-width="1.7" stroke-linecap="round" stroke-linejoin="round"><path d="M6 21V4"></path><path d="M6 5h11l-2 3 2 3H6"></path></symbol>
  <symbol id="pims-messages" viewBox="0 0 24 24" fill="none" stroke="currentColor" stroke-width="1.7" stroke-linecap="round" stroke-linejoin="round"><path d="M4 5.5h16c.6 0 1 .4 1 1v9c0 .6-.4 1-1 1H9l-4 3.5V16.5H4c-.6 0-1-.4-1-1v-9c0-.6.4-1 1-1z"></path><path d="M8 10h8M8 13h5" stroke-width="1.3"></path></symbol>
  <symbol id="pims-call" viewBox="0 0 24 24" fill="none" stroke="currentColor" stroke-width="1.7" stroke-linecap="round" stroke-linejoin="round"><path d="M6 3.5h3l1.5 4-2 1.5c.9 2 2.5 3.6 4.5 4.5l1.5-2 4 1.5v3c0 .8-.7 1.5-1.5 1.4C11 20.4 3.6 13 3.6 5 3.5 4.2 4.2 3.5 5 3.5z"></path></symbol>
  <symbol id="pims-email" viewBox="0 0 24 24" fill="none" stroke="currentColor" stroke-width="1.7" stroke-linecap="round" stroke-linejoin="round"><rect x="3.5" y="5.5" width="17" height="13" rx="1.4"></rect><path d="M4 7l8 6 8-6" stroke-width="1.4"></path></symbol>
  <symbol id="pims-print" viewBox="0 0 24 24" fill="none" stroke="currentColor" stroke-width="1.7" stroke-linecap="round" stroke-linejoin="round"><path d="M7 9V4h10v5"></path><path d="M5 9h14c1 0 1.5.6 1.5 1.5v5c0 .5-.4 1-1 1H18v-3H6v3H4.5c-.6 0-1-.5-1-1v-5C3.5 9.6 4 9 5 9z"></path><rect x="7" y="14" width="10" height="6" rx="1"></rect></symbol>
  <symbol id="pims-history" viewBox="0 0 24 24" fill="none" stroke="currentColor" stroke-width="1.7" stroke-linecap="round" stroke-linejoin="round"><path d="M3.5 12a8.5 8.5 0 1 0 2.6-6.1"></path><path d="M3 4v4h4M12 8v4.5l3 1.8" stroke-width="1.5"></path></symbol>
  <symbol id="pims-filter" viewBox="0 0 24 24" fill="none" stroke="currentColor" stroke-width="1.7" stroke-linecap="round" stroke-linejoin="round"><path d="M4 5h16l-6 7v6l-4 2v-8z"></path></symbol>
  <symbol id="pims-tags" viewBox="0 0 24 24" fill="none" stroke="currentColor" stroke-width="1.7" stroke-linecap="round" stroke-linejoin="round"><path d="M4 4.5h7.5c.4 0 .8.2 1.1.4l6.5 6.5c.6.6.6 1.5 0 2.1l-5.6 5.6c-.6.6-1.5.6-2.1 0L4.9 12.6c-.3-.3-.4-.7-.4-1.1z"></path><circle cx="8.5" cy="8.5" r="1.3" fill="currentColor" stroke="none"></circle></symbol>
  <symbol id="pims-attach" viewBox="0 0 24 24" fill="none" stroke="currentColor" stroke-width="1.7" stroke-linecap="round" stroke-linejoin="round"><path d="M18 8.5l-7.4 7.4a3 3 0 0 1-4.2-4.2l7.6-7.6a2 2 0 0 1 2.8 2.8l-7.5 7.5a1 1 0 0 1-1.4-1.4l6.8-6.8"></path></symbol>
  <symbol id="pims-sync" viewBox="0 0 24 24" fill="none" stroke="currentColor" stroke-width="1.7" stroke-linecap="round" stroke-linejoin="round"><path d="M20 6.5v4h-4"></path><path d="M4 17.5v-4h4"></path><path d="M19 10.5A7 7 0 0 0 6.5 8M5 13.5A7 7 0 0 0 17.5 16"></path></symbol>
  <symbol id="pims-verified" viewBox="0 0 24 24" fill="none" stroke="currentColor" stroke-width="1.7" stroke-linecap="round" stroke-linejoin="round"><path d="M12 3l2.2 1.6 2.7-.2.9 2.6 2.2 1.6-.9 2.6.9 2.6-2.2 1.6-.9 2.6-2.7-.2L12 21l-2.2-1.6-2.7.2-.9-2.6L4 15.4l.9-2.6L4 10.2l2.2-1.6.9-2.6 2.7.2z"></path><path d="M9 12l2 2 4-4" stroke-width="1.6"></path></symbol>
  <symbol id="pims-help" viewBox="0 0 24 24" fill="none" stroke="currentColor" stroke-width="1.7" stroke-linecap="round" stroke-linejoin="round"><circle cx="12" cy="12" r="8.5"></circle><path d="M9.5 9.5a2.5 2.5 0 0 1 4.5 1.5c0 1.6-2 2-2 3.5" stroke-width="1.5"></path><circle cx="12" cy="17" r="0.6" fill="currentColor" stroke="none"></circle></symbol>
  <symbol id="pims-delete" viewBox="0 0 24 24" fill="none" stroke="currentColor" stroke-width="1.7" stroke-linecap="round" stroke-linejoin="round"><path d="M5 6.5h14M9 6.5V4.5c0-.6.4-1 1-1h4c.6 0 1 .4 1 1v2"></path><path d="M6.5 6.5l1 12c0 .6.5 1 1 1h7c.5 0 1-.4 1-1l1-12"></path><path d="M10 10v6M14 10v6" stroke-width="1.3"></path></symbol>
</svg>